<svg xmlns="http://www.w3.org/2000/svg" aria-hidden="true" style="position:absolute;width:0;height:0;overflow:hidden"><defs><symbol id="icon-burger" viewBox="0 0 47 32"><path d="M.892.115a1.789 1.789 0 0 0-.599.432L.292.548.001.872v2.483l.332.332c.636.636-1.54.583 23.293.56l22.106-.019.407-.225.407-.227V.401L45.74 0 23.471.003C4.569.006 1.155.023.892.115zm.176 13.46c-.359.109-.742.384-.909.653-.141.23-.159.384-.159 1.412 0 1.004.02 1.187.151 1.401.217.355.735.628 1.364.72.742.108 43.081.108 43.821 0 .295-.042.679-.156.854-.252l.316-.175v-3.408l-.698-.39-22.263-.013c-12.246-.007-22.361.016-22.477.051zm.151 13.506a1.69 1.69 0 0 0-.972.571l-.002.003-.244.279v2.497l.332.332c.636.634-1.54.582 23.293.56 20.793-.019 22.122-.028 22.378-.154.573-.285.543-.17.543-2.022v-1.673l-.892-.438-22.071-.012c-12.748-.007-22.193.016-22.364.057z"/></symbol><symbol id="icon-bar" viewBox="0 0 31 32"><path d="m13.045.456 8.306 8.316.088-.088a.948.948 0 0 1 1.306-.015l.963.963c.337.337.348.85.092 1.207l-.004.008-.158.212 6.797 6.797a1.539 1.539 0 0 1 0 2.185L20.029 30.447a1.539 1.539 0 0 1-2.185 0l-4.907-4.907a.918.918 0 0 1-.675.35.93.93 0 0 1-.71-.272l-2.869-2.869a.948.948 0 0 1-.015-1.306l.007-.008.085-.084-8.306-8.306a1.539 1.539 0 0 1 0-2.185L10.859.455a1.539 1.539 0 0 1 2.185 0v.001zm7.263 9.357L18.37 7.876a.655.655 0 0 0-.938 0l-3.95 3.95a.664.664 0 0 0-.146.731.68.68 0 0 0 .146.217l1.93 1.93.673-.673-1.727-1.727L17.9 8.751l1.731 1.737.676-.676zm-5.601 5.597-1.935-1.935a.655.655 0 0 0-.938 0l-3.961 3.961a.653.653 0 0 0 0 .938l1.933 1.933.68-.68-1.732-1.726 3.553-3.542 1.726 1.725.675-.674zM7.528 6.834l3.95 3.95a.644.644 0 0 0 .938-.011l3.95-3.95a.643.643 0 0 0 .199-.463h.011a.674.674 0 0 0-.199-.474l-3.95-3.95a.667.667 0 0 0-.948 0l-3.95 3.961a.653.653 0 0 0 0 .938zm-5.595 5.594 3.95 3.95a.653.653 0 0 0 .938 0l3.95-3.95a.643.643 0 0 0 .199-.474h.011a.655.655 0 0 0-.199-.474l-3.95-3.95a.655.655 0 0 0-.938 0l-3.961 3.961a.653.653 0 0 0 0 .938zm7.65 9.66 2.606 2.607 10.633-14.389-.723-.723L9.583 22.087z"/><path d="m13.045.456 8.306 8.316.088-.088a.948.948 0 0 1 1.306-.015l.963.963c.337.337.348.85.092 1.207l-.004.008-.158.212 6.797 6.797a1.539 1.539 0 0 1 0 2.185L20.029 30.447a1.539 1.539 0 0 1-2.185 0l-4.907-4.907a.918.918 0 0 1-.675.35.93.93 0 0 1-.71-.272l-2.869-2.869a.948.948 0 0 1-.015-1.306l.007-.008.085-.084-8.306-8.306a1.539 1.539 0 0 1 0-2.185L10.859.455a1.539 1.539 0 0 1 2.185 0v.001zm7.263 9.357L18.37 7.876a.655.655 0 0 0-.938 0l-3.95 3.95a.664.664 0 0 0-.146.731.68.68 0 0 0 .146.217l1.93 1.93.673-.673-1.727-1.727L17.9 8.751l1.731 1.737.676-.676zm-5.601 5.597-1.935-1.935a.655.655 0 0 0-.938 0l-3.961 3.961a.653.653 0 0 0 0 .938l1.933 1.933.68-.68-1.732-1.726 3.553-3.542 1.726 1.725.675-.674zM7.528 6.834l3.95 3.95a.644.644 0 0 0 .938-.011l3.95-3.95a.643.643 0 0 0 .199-.463h.011a.674.674 0 0 0-.199-.474l-3.95-3.95a.667.667 0 0 0-.948 0l-3.95 3.961a.653.653 0 0 0 0 .938zm-5.595 5.594 3.95 3.95a.653.653 0 0 0 .938 0l3.95-3.95a.643.643 0 0 0 .199-.474h.011a.655.655 0 0 0-.199-.474l-3.95-3.95a.655.655 0 0 0-.938 0l-3.961 3.961a.653.653 0 0 0 0 .938zm7.65 9.66 2.606 2.607 10.633-14.389-.723-.723L9.583 22.087z"/></symbol><symbol id="icon-burger-hover" viewBox="0 0 45 32"><path stroke-linecap="round" stroke-linejoin="round" stroke-width="4" d="M3.2 16h38.4M3.2 3.2h38.4M3.2 28.8h38.4"/></symbol><symbol id="icon-chocolate" viewBox="0 0 32 32"><path d="M3.944 20.076 14.721 2.652l.64-.674 8.236 5.491.056 3.314 2.01 3.28-8.88 14.077-12.839-8.063z"/><path stroke-linecap="round" stroke-linejoin="round" stroke-width="2.667" d="M21.635 23.88 7.45 15.016m3.911-6.417 14.185 8.864M10.63 25.864l11.736-19.25m4.81 8.175c-3.04-1.899-4.234-3.384-2.278-6.592l-9.626-6.015-11.736 19.25 14.186 8.864 9.454-15.507z"/></symbol><symbol id="icon-close" viewBox="0 0 32 32"><path stroke-linecap="round" stroke-linejoin="round" stroke-width="4.8" d="M29.333 2.667 2.666 29.334m.001-26.667 26.667 26.667"/></symbol><symbol id="icon-coin" viewBox="0 0 32 32"><path d="M16 .762C7.619.762.762 7.619.762 16S7.619 31.238 16 31.238 31.238 24.381 31.238 16 24.381.762 16 .762zm0 27.429c-6.705 0-12.19-5.486-12.19-12.19S9.296 3.81 16 3.81c6.705 0 12.19 5.486 12.19 12.191s-5.486 12.19-12.191 12.19z"/><path d="M17.981 14.476h-3.962c-.762 0-1.371-.61-1.371-1.371s.61-1.371 1.371-1.371h5.638c.914 0 1.524-.61 1.524-1.524s-.61-1.524-1.524-1.524h-2.133V7.315c0-.914-.61-1.524-1.524-1.524s-1.524.61-1.524 1.524v1.371h-.457c-2.438 0-4.419 1.981-4.419 4.419s1.981 4.419 4.419 4.419h3.809c.762 0 1.371.61 1.371 1.371s-.61 1.371-1.371 1.371H12.19c-.914 0-1.524.61-1.524 1.524s.61 1.524 1.524 1.524h2.286v1.371c0 .914.61 1.524 1.524 1.524s1.524-.61 1.524-1.524v-1.371h.457c2.438 0 4.419-1.981 4.419-4.419s-1.981-4.419-4.419-4.419z"/></symbol><symbol id="icon-home" viewBox="0 0 86 32"><path d="M16.996 6.4h2.8V26h-2.8V6.4zM5.74 26h-2.8V6.4h2.8V26zm11.508-8.736H5.46v-2.436h11.788v2.436zm13.819 8.904c-1.493 0-2.819-.327-3.976-.98s-2.072-1.549-2.744-2.688c-.672-1.157-1.008-2.464-1.008-3.92 0-1.475.336-2.781 1.008-3.92s1.587-2.025 2.744-2.66c1.157-.653 2.483-.98 3.976-.98 1.475 0 2.791.327 3.948.98a6.843 6.843 0 0 1 2.744 2.66c.672 1.12 1.008 2.427 1.008 3.92 0 1.475-.336 2.781-1.008 3.92a7.03 7.03 0 0 1-2.744 2.688c-1.157.653-2.473.98-3.948.98zm0-2.352c.952 0 1.801-.215 2.548-.644a4.543 4.543 0 0 0 1.792-1.82c.429-.803.644-1.727.644-2.772 0-1.064-.215-1.979-.644-2.744a4.543 4.543 0 0 0-1.792-1.82c-.747-.429-1.596-.644-2.548-.644s-1.801.215-2.548.644a4.791 4.791 0 0 0-1.792 1.82c-.448.765-.672 1.68-.672 2.744 0 1.045.224 1.969.672 2.772.448.784 1.045 1.391 1.792 1.82s1.596.644 2.548.644zM60.488 11.02c1.195 0 2.249.233 3.164.7s1.624 1.176 2.128 2.128c.523.952.784 2.156.784 3.612V26h-2.688v-8.232c0-1.437-.336-2.52-1.008-3.248s-1.615-1.092-2.828-1.092c-.896 0-1.68.187-2.352.56s-1.195.924-1.568 1.652c-.355.728-.532 1.633-.532 2.716V26H52.9v-8.232c0-1.437-.336-2.52-1.008-3.248-.653-.728-1.596-1.092-2.828-1.092-.877 0-1.652.187-2.324.56s-1.195.924-1.568 1.652c-.373.728-.56 1.633-.56 2.716V26h-2.688V11.16H44.5v3.948l-.42-1.008c.467-.971 1.185-1.727 2.156-2.268s2.1-.812 3.388-.812c1.419 0 2.641.355 3.668 1.064 1.027.691 1.699 1.745 2.016 3.164l-1.092-.448c.448-1.139 1.232-2.053 2.352-2.744s2.427-1.036 3.92-1.036zm17.07 15.148c-1.587 0-2.987-.327-4.2-.98a7.178 7.178 0 0 1-2.8-2.688c-.653-1.139-.98-2.445-.98-3.92s.317-2.781.952-3.92A6.999 6.999 0 0 1 73.19 12c1.139-.653 2.417-.98 3.836-.98 1.437 0 2.707.317 3.808.952s1.96 1.531 2.576 2.688c.635 1.139.952 2.473.952 4.004 0 .112-.009.243-.028.392 0 .149-.009.289-.028.42H71.678v-1.932h11.228l-1.092.672c.019-.952-.177-1.801-.588-2.548s-.98-1.325-1.708-1.736c-.709-.429-1.54-.644-2.492-.644-.933 0-1.764.215-2.492.644a4.328 4.328 0 0 0-1.708 1.764c-.411.747-.616 1.605-.616 2.576v.448c0 .989.224 1.876.672 2.66.467.765 1.111 1.363 1.932 1.792s1.764.644 2.828.644c.877 0 1.671-.149 2.38-.448a5.22 5.22 0 0 0 1.904-1.344l1.484 1.736a6.483 6.483 0 0 1-2.52 1.792c-.989.411-2.1.616-3.332.616z"/></symbol><symbol id="icon-instagram" viewBox="0 0 32 32"><path stroke-linecap="round" stroke-linejoin="round" stroke-width="2.182" d="M22.667 2.667H9.334a6.667 6.667 0 0 0-6.667 6.667v13.333a6.667 6.667 0 0 0 6.667 6.667h13.333a6.667 6.667 0 0 0 6.667-6.667V9.334a6.667 6.667 0 0 0-6.667-6.667z"/><path stroke-linecap="round" stroke-linejoin="round" stroke-width="2.182" d="M21.333 15.16a5.338 5.338 0 0 1-6.123 6.049 5.334 5.334 0 0 1-3.916-7.663 5.333 5.333 0 0 1 8.536-1.374 5.328 5.328 0 0 1 1.504 2.989zM23.333 8.667h.015"/></symbol><symbol id="icon-scroll" viewBox="0 0 56 32"><path d="M30.605 21.134a3.675 3.675 0 0 1-2.603 1.085 3.67 3.67 0 0 1-2.603-1.085L8.606 4.304a3.675 3.675 0 0 0-2.603-1.085A3.67 3.67 0 0 0 3.4 9.474l16.83 16.83a11 11 0 0 0 15.546 0l16.83-16.83a3.669 3.669 0 0 0 .791-3.975A3.659 3.659 0 0 0 51.412 3.5a3.655 3.655 0 0 0-2.82 0 3.659 3.659 0 0 0-1.193.803l-16.793 16.83z"/></symbol><symbol id="icon-spoon" viewBox="0 0 34 32"><path d="M16.482 12.913a5.498 5.498 0 0 1-1.255-3.501C15.227 4.8 20.754.194 26.28.194a5.528 5.528 0 0 1 5.526 5.528c0 5.528-4.605 11.055-9.222 11.055a5.497 5.497 0 0 1-3.5-1.255L5.475 29.134a1.844 1.844 0 0 1-2.608-2.608l13.615-13.612z"/><path stroke-width="1.067" d="m16.859 13.29.343-.342-.308-.374a4.965 4.965 0 0 1-1.133-3.162c0-2.096 1.265-4.263 3.262-5.929C21.014 1.823 23.659.727 26.28.727a4.995 4.995 0 0 1 4.993 4.994c0 2.622-1.096 5.268-2.756 7.259-1.666 1.998-3.835 3.263-5.933 3.263a4.968 4.968 0 0 1-3.161-1.133l-.374-.308L5.098 28.756a1.312 1.312 0 0 1-1.853-1.854L16.86 13.29z"/></symbol><symbol id="icon-twitter" viewBox="0 0 36 32"><path stroke-linecap="round" stroke-linejoin="round" stroke-width="2.667" d="M34.074 2.667a16.15 16.15 0 0 1-4.652 2.267 6.635 6.635 0 0 0-10.5.628 6.636 6.636 0 0 0-1.145 3.817v1.481c-2.604.068-5.183-.51-7.51-1.681S5.94 5.687 4.443 3.556c0 0-5.926 13.926 7.407 19.852a17.242 17.242 0 0 1-10.37 2.963c13.333 7.407 29.63 0 29.63-17.037a6.683 6.683 0 0 0-.118-1.23 11.433 11.433 0 0 0 3.081-5.437z"/></symbol><symbol id="icon-flag" viewBox="0 0 40 32"><path fill="gold" d="M40.209.495H.307V30.19h39.902V.495z" style="fill:var(--color1, #ffd700)"/><path fill="#0057b7" d="M.307.495h39.902v14.847H.307V.495z" style="fill:var(--color2, #0057b7)"/></symbol></defs></svg>